<?xml version="1.0" encoding="utf-8"?>
<!-- Generator: Adobe Illustrator 22.0.1, SVG Export Plug-In . SVG Version: 6.00 Build 0)  -->
<svg version="1.1" id="Layer_1" xmlns="http://www.w3.org/2000/svg" xmlns:xlink="http://www.w3.org/1999/xlink" x="0px" y="0px"
	 viewBox="0 0 32 32" style="enable-background:new 0 0 32 32;" xml:space="preserve">
<style type="text/css">
	.st0{fill:#FFFFFF;}
</style>
<g>
	<path class="st0" d="M16,1c8.3,0,15,6.7,15,15s-6.7,15-15,15S1,24.3,1,16S7.7,1,16,1 M16,0C7.2,0,0,7.2,0,16s7.2,16,16,16
		s16-7.2,16-16S24.8,0,16,0L16,0z"/>
</g>
<g>
	<g>
		<path class="st0" d="M24,10.4v1c0,0.1-0.1,0.2-0.1,0.3l-7.7,5.2c-0.1,0.1-0.2,0.1-0.4,0l-7.7-5.2C8.1,11.5,8,11.4,8,11.3v-1
			C8,10.2,8.1,10,8.3,10h15.4C23.9,10,24,10.2,24,10.4z"/>
	</g>
	<g>
		<path class="st0" d="M24,12.8v7.8c0,0.2-0.1,0.3-0.3,0.3H8.3C8.1,21,8,20.8,8,20.6v-7.8c0-0.2,0.3-0.4,0.5-0.3l7.3,5
			c0.1,0.1,0.2,0.1,0.3,0l7.3-5C23.7,12.4,24,12.6,24,12.8z"/>
	</g>
</g>
</svg>
