<?xml version="1.0" encoding="utf-8"?>
<!-- Generator: Adobe Illustrator 22.0.1, SVG Export Plug-In . SVG Version: 6.00 Build 0)  -->
<svg version="1.1" id="Layer_1" xmlns="http://www.w3.org/2000/svg" xmlns:xlink="http://www.w3.org/1999/xlink" x="0px" y="0px"
	 viewBox="0 0 32 32" style="enable-background:new 0 0 32 32;" xml:space="preserve">
<style type="text/css">
	.st0{fill:#FFFFFF;}
	.st1{fill:none;stroke:#FFFFFF;stroke-width:0.75;stroke-miterlimit:10;}
</style>
<g>
	<g>
		<path class="st0" d="M11.9,22.7H8.8v-9.9h3.1V22.7z M10.3,11.4c-1,0-1.8-0.8-1.8-1.8c0-1,0.8-1.8,1.8-1.8c1,0,1.8,0.8,1.8,1.8
			C12.1,10.6,11.3,11.4,10.3,11.4z M23.5,22.7h-3.1v-4.8c0-1.2,0-2.6-1.6-2.6c-1.6,0-1.9,1.3-1.9,2.6v4.9h-3.1v-9.9h3v1.4h0
			c0.4-0.8,1.4-1.6,2.9-1.6c3.1,0,3.7,2.1,3.7,4.7V22.7z"/>
	</g>
</g>
<circle class="st1" cx="16" cy="16" r="15.6"/>
</svg>
