<svg id="Layer_1" data-name="Layer 1" xmlns="http://www.w3.org/2000/svg" viewBox="0 0 230 230"><defs><style>.cls-1{fill:#fff;stroke:#231f20;stroke-miterlimit:10;stroke-width:5px;}</style></defs><title>Ideation</title><circle class="cls-1" cx="111.59" cy="114.58" r="94.7"/><path class="cls-1" d="M146,161.42a2.64,2.64,0,0,0,2.63-2.63h0a2.64,2.64,0,0,0-2.63-2.63h-8V136.66H87.67v19.51H82.56a2.64,2.64,0,0,0-2.63,2.63h0a2.64,2.64,0,0,0,2.63,2.63h5.12v7.89H82.56a2.64,2.64,0,0,0-2.63,2.63h0a2.64,2.64,0,0,0,2.63,2.63h5.12v9.05H138v-9.05h8a2.64,2.64,0,0,0,2.63-2.63h0a2.64,2.64,0,0,0-2.63-2.63h-8v-7.89Z"/><circle class="cls-1" cx="111.59" cy="98.45" r="53.69"/></svg>