<svg id="Layer_1" data-name="Layer 1" xmlns="http://www.w3.org/2000/svg" viewBox="0 0 230 230"><defs><style>.cls-1{fill:#231f20;}.cls-2{fill:#fff;stroke:#231f20;stroke-miterlimit:10;stroke-width:6px;}</style></defs><title>Artboard 1</title><circle class="cls-1" cx="111.07" cy="114.81" r="94.7"/><path class="cls-2" d="M74.55,79.89a37.52,37.52,0,0,1,7.87-12.52,35.18,35.18,0,0,1,12.21-8.27,41.1,41.1,0,0,1,16-3q11.41,0,19,3.14A37.09,37.09,0,0,1,141.9,67a28.08,28.08,0,0,1,6.66,10,28.72,28.72,0,0,1,2,10,34.11,34.11,0,0,1-2,12.69,30.93,30.93,0,0,1-5,8.51,33.19,33.19,0,0,1-6.57,6q-3.63,2.49-6.83,5a31.78,31.78,0,0,0-5.7,5.7,16.43,16.43,0,0,0-3.14,8v6.1H99.67v-7.23a32.8,32.8,0,0,1,2.64-11.55,33.5,33.5,0,0,1,5.06-8,41.36,41.36,0,0,1,6.1-5.7q3.21-2.41,5.95-4.81a21.56,21.56,0,0,0,4.42-5.31,13.17,13.17,0,0,0,1.53-7.23q0-7.39-3.62-10.91t-10-3.54a15.54,15.54,0,0,0-7.46,1.69,14.85,14.85,0,0,0-5.14,4.5,19.47,19.47,0,0,0-3,6.59,32.82,32.82,0,0,0-1,8.12H71.57A45.66,45.66,0,0,1,74.55,79.89Zm48.09,68.89V173.5H97.43V148.78Z"/></svg>